<svg clip-rule="evenodd" fill-rule="evenodd" stroke-linejoin="round" stroke-miterlimit="2" viewBox="0 0 874 874" xmlns="http://www.w3.org/2000/svg"><path d="m0 0h874v874h-874z" fill="#fff"/><g transform="matrix(2.45487 0 0 2.45487 -2303.92 -1177.64)"><g fill-rule="nonzero"><path d="m1116.53 576.085c-.66 0-1.2.532-1.2 1.193v13.762c0 .661.54 1.194 1.2 1.194s1.19-.533 1.19-1.194v-13.762c0-.661-.53-1.193-1.19-1.193zm-7.81.493c-.08-.009-.16-.009-.24.001-.66.068-1.13.653-1.07 1.31l.61 5.758c.07.658.65 1.132 1.31 1.063.65-.069 1.13-.653 1.06-1.311l-.6-5.757c-.06-.575-.52-1.01-1.07-1.064zm15.67.006c-.56.053-1.01.488-1.07 1.063l-.61 5.757c-.07.658.41 1.243 1.06 1.312.66.069 1.25-.405 1.32-1.062l.6-5.758c.07-.657-.4-1.242-1.06-1.311-.08-.008-.17-.008-.24-.001zm-23.69 1.157c-.08 0-.16.008-.24.025-.65.137-1.06.768-.92 1.415l2.85 13.464c.14.646.77 1.057 1.42.92.64-.137 1.05-.767.92-1.414l-2.85-13.465c-.12-.565-.62-.95-1.18-.946zm31.7.011c-.55-.006-1.05.38-1.17.945l-2.86 13.463c-.14.647.27 1.278.92 1.415s1.28-.273 1.41-.919l2.86-13.463c.14-.646-.27-1.277-.92-1.415-.08-.017-.16-.025-.24-.025zm-39.35 2.146c-.16-.014-.31.003-.47.055-.63.205-.97.875-.77 1.503l1.79 5.506c.21.629.88.971 1.51.767.62-.205.97-.875.76-1.504l-1.79-5.506c-.15-.471-.57-.781-1.03-.821zm46.96.003c-.46.04-.88.349-1.03.821l-1.79 5.505c-.2.629.14 1.3.77 1.504s1.3-.137 1.5-.766l1.79-5.506c.2-.628-.14-1.299-.76-1.503-.16-.051-.32-.068-.48-.055zm-54.53 2.766c-.15.003-.31.037-.46.105-.6.268-.87.97-.61 1.574l5.59 12.576c.27.604.97.875 1.58.606.6-.268.87-.971.6-1.575l-5.59-12.576c-.2-.453-.64-.719-1.11-.709zm62.19.043c-.47-.009-.91.255-1.12.708l-5.6 12.568c-.27.604 0 1.307.6 1.576s1.31 0 1.58-.603l5.6-12.569c.27-.604 0-1.306-.6-1.576-.15-.067-.31-.101-.46-.104zm-69.21 3.674c-.23-.017-.47.034-.68.158-.57.331-.77 1.057-.44 1.63l2.9 5.014c.33.572 1.05.767 1.63.436.57-.33.76-1.057.43-1.63l-2.89-5.013c-.21-.358-.57-.568-.95-.595zm76.13 0c-.38.025-.74.237-.95.595l-2.89 5.013c-.33.573-.14 1.3.44 1.63.57.331 1.3.136 1.63-.437l2.89-5.013c.33-.573.14-1.299-.44-1.63-.21-.124-.45-.174-.68-.158zm-82.95 4.254c-.23.008-.46.082-.66.228-.54.388-.65 1.131-.27 1.666l8.08 11.14c.39.535 1.14.653 1.67.265.54-.388.65-1.131.27-1.666l-8.09-11.14c-.24-.335-.62-.506-1-.493zm89.86.061c-.38-.015-.76.157-1.01.491l-8.09 11.129c-.39.535-.28 1.278.26 1.667.53.389 1.28.272 1.67-.262l8.09-11.13c.39-.534.27-1.278-.26-1.667-.2-.145-.43-.22-.66-.228zm-95.96 5.052c-.3-.017-.61.085-.86.306-.49.442-.53 1.193-.09 1.685l3.87 4.303c.45.491 1.2.53 1.69.088s.53-1.194.09-1.685l-3.87-4.303c-.23-.246-.52-.378-.83-.394zm101.98.008c-.31.017-.6.149-.83.395l-3.87 4.302c-.44.491-.4 1.243.09 1.685.49.443 1.24.403 1.69-.088l3.87-4.302c.44-.491.4-1.243-.09-1.686-.25-.221-.56-.321-.86-.306zm-107.82 5.605c-.31.017-.6.148-.83.394-.44.491-.4 1.243.09 1.685l10.23 9.208c.49.442 1.24.403 1.69-.089.44-.491.4-1.242-.09-1.684l-10.23-9.208c-.25-.221-.56-.322-.86-.306zm113.69.04c-.3-.017-.61.084-.86.305l-10.23 9.201c-.5.442-.54 1.193-.1 1.685.45.491 1.2.531 1.69.089l10.23-9.2c.5-.442.54-1.194.09-1.685-.22-.246-.51-.379-.82-.395zm-118.55 6.208c-.38-.015-.76.158-1.01.492-.39.535-.27 1.278.27 1.666l4.68 3.403c.54.389 1.28.271 1.67-.263.39-.535.27-1.279-.27-1.667l-4.68-3.403c-.2-.146-.43-.22-.66-.228zm123.41.043c-.23.009-.46.082-.66.228l-4.69 3.399c-.53.389-.65 1.132-.27 1.667.39.535 1.14.653 1.67.265l4.69-3.4c.53-.388.65-1.131.26-1.666-.24-.334-.62-.506-1-.493zm-127.95 6.621c-.38.026-.74.237-.95.595-.33.573-.14 1.299.44 1.63l11.91 6.881c.58.331 1.3.136 1.63-.436.33-.573.14-1.3-.43-1.63l-11.92-6.882c-.22-.123-.45-.174-.68-.158zm132.45 0c-.22-.017-.46.034-.68.159l-11.92 6.881c-.57.33-.76 1.057-.43 1.63.33.572 1.06.767 1.63.436l11.92-6.881c.57-.33.77-1.057.43-1.63-.2-.358-.56-.568-.95-.595zm-135.88 7.104c-.47-.011-.92.255-1.12.708-.27.603 0 1.306.61 1.575l5.28 2.359c.61.269 1.31 0 1.58-.604.27-.603 0-1.306-.6-1.575l-5.29-2.359c-.15-.067-.31-.101-.46-.104zm139.34.049c-.15.003-.31.037-.46.104l-5.29 2.355c-.61.269-.88.971-.61 1.575s.98.874 1.58.605l5.29-2.355c.6-.269.87-.971.6-1.575-.2-.453-.65-.718-1.11-.709zm-142.4 7.376c-.47.039-.88.348-1.04.82-.2.628.14 1.299.77 1.504l13.08 4.264c.63.204 1.3-.137 1.51-.765.2-.629-.14-1.299-.77-1.504l-13.08-4.264c-.16-.051-.32-.068-.47-.055zm145.46.051c-.16-.014-.32.003-.48.055l-13.09 4.254c-.62.205-.96.876-.76 1.504.2.629.87.97 1.5.766l13.09-4.255c.63-.204.97-.875.77-1.503-.16-.472-.57-.782-1.03-.821zm-147.37 7.743c-.56-.006-1.06.38-1.18.946-.13.646.28 1.277.92 1.415l5.67 1.203c.64.138 1.27-.272 1.41-.919.14-.646-.27-1.278-.92-1.415l-5.66-1.203c-.08-.017-.16-.026-.24-.026zm149.26.011c-.08.001-.16.011-.24.026l-5.67 1.203c-.64.137-1.05.768-.92 1.414.14.647.77 1.057 1.42.92l5.66-1.203c.65-.138 1.06-.769.92-1.415-.12-.566-.62-.951-1.17-.946zm-150.7 7.828c-.56.054-1.01.488-1.07 1.063-.07.657.4 1.242 1.06 1.312l13.68 1.447c.66.069 1.25-.404 1.32-1.061.07-.658-.41-1.243-1.07-1.312l-13.68-1.447c-.08-.009-.16-.009-.24-.001zm152.15.103c-.08-.008-.16-.008-.24.001l-13.69 1.429c-.66.068-1.13.653-1.06 1.31.06.658.65 1.132 1.31 1.063l13.68-1.428c.66-.069 1.14-.653 1.07-1.311-.06-.575-.52-1.01-1.07-1.064zm-152.39 7.922c-.66 0-1.19.533-1.19 1.194s.53 1.193 1.19 1.193h5.79c.66 0 1.2-.532 1.2-1.193s-.54-1.194-1.2-1.194zm146.82 0c-.66 0-1.19.533-1.19 1.194s.53 1.193 1.19 1.193h5.79c.66 0 1.19-.532 1.19-1.193s-.53-1.194-1.19-1.194zm-132.67 6.505c-.08-.009-.16-.009-.24.001l-13.69 1.428c-.66.069-1.13.653-1.06 1.311.06.657.65 1.131 1.31 1.063l13.68-1.429c.66-.068 1.14-.653 1.07-1.31-.06-.576-.52-1.01-1.07-1.064zm124.31.084c-.56.053-1.01.488-1.07 1.063-.07.657.4 1.242 1.06 1.312l13.68 1.447c.66.069 1.25-.404 1.32-1.061.07-.658-.41-1.243-1.06-1.313l-13.69-1.447c-.08-.008-.16-.008-.24-.001zm-131.13 8.061c-.08.001-.17.008-.25.025l-5.66 1.203c-.64.138-1.05.769-.92 1.415.14.647.77 1.057 1.42.92l5.66-1.203c.65-.137 1.06-.768.92-1.415-.12-.566-.62-.951-1.17-.946zm137.96.011c-.56-.005-1.06.38-1.18.946-.14.646.27 1.277.92 1.415l5.66 1.203c.65.138 1.28-.272 1.42-.918.14-.647-.27-1.279-.92-1.416l-5.66-1.203c-.08-.017-.16-.026-.24-.026zm-128.43 4.7c-.15-.014-.31.003-.47.055l-13.09 4.254c-.63.205-.97.875-.76 1.504.2.629.87.97 1.5.766l13.09-4.255c.63-.204.97-.875.76-1.504-.15-.471-.56-.781-1.03-.82zm118.88.042c-.46.039-.88.348-1.03.82-.21.628.13 1.299.76 1.504l13.09 4.264c.62.204 1.3-.137 1.5-.765.21-.628-.14-1.299-.76-1.504l-13.09-4.264c-.16-.051-.32-.068-.47-.055zm-123.87 9.276c-.16.003-.31.037-.47.104l-5.28 2.355c-.61.268-.88.971-.61 1.575s.97.873 1.58.605l5.28-2.355c.61-.269.88-.971.61-1.575-.2-.453-.65-.718-1.11-.709zm128.86.046c-.47-.012-.91.255-1.12.707-.27.604 0 1.307.61 1.576l5.28 2.359c.61.269 1.31 0 1.58-.604s0-1.306-.6-1.576l-5.29-2.358c-.15-.068-.31-.101-.46-.104zm-118.57 2.585c-.23-.017-.46.034-.68.159l-11.91 6.881c-.58.33-.77 1.057-.44 1.63.33.572 1.06.767 1.63.436l11.92-6.88c.57-.331.76-1.058.43-1.631-.2-.358-.56-.568-.95-.595zm108.29 0c-.38.026-.75.237-.95.595-.33.573-.14 1.3.43 1.63l11.92 6.881c.58.331 1.3.136 1.63-.436.34-.573.14-1.3-.43-1.63l-11.92-6.882c-.22-.123-.45-.174-.68-.158zm-111.26 10.099c-.23.008-.46.082-.66.228l-4.68 3.4c-.54.388-.66 1.131-.27 1.666s1.13.653 1.67.265l4.68-3.4c.54-.388.66-1.131.27-1.666-.24-.335-.63-.507-1.01-.493zm114.2.04c-.38-.014-.76.158-1 .492-.39.535-.27 1.279.26 1.667l4.68 3.403c.54.388 1.28.271 1.67-.264s.27-1.278-.26-1.667l-4.69-3.403c-.2-.145-.43-.22-.66-.228zm-103.59.412c-.3-.017-.61.084-.86.305l-10.23 9.201c-.49.442-.53 1.193-.09 1.685.44.491 1.19.531 1.68.089l10.24-9.2c.49-.442.53-1.194.09-1.685-.22-.246-.52-.379-.83-.395zm92.98.033c-.3.017-.6.149-.82.394-.45.491-.41 1.243.08 1.685l10.23 9.208c.49.442 1.25.403 1.69-.088.44-.492.4-1.243-.09-1.685l-10.23-9.208c-.24-.221-.55-.322-.86-.306zm-83.27 8.741c-.38-.015-.76.157-1 .491l-8.1 11.129c-.39.535-.27 1.278.26 1.667.54.389 1.28.272 1.67-.263l8.1-11.129c.39-.535.27-1.278-.27-1.667-.2-.146-.43-.221-.66-.228zm73.52.049c-.23.009-.46.082-.66.228-.53.388-.65 1.131-.26 1.666l8.08 11.14c.39.536 1.13.654 1.66.266.54-.388.66-1.132.27-1.667l-8.08-11.14c-.24-.334-.63-.505-1.01-.492zm-83.97 1.719c-.3.017-.6.149-.82.395l-3.88 4.302c-.44.491-.4 1.243.09 1.685.49.443 1.24.403 1.69-.089l3.87-4.301c.44-.492.4-1.244-.09-1.686-.24-.221-.55-.322-.86-.306zm94.48.006c-.3-.017-.61.085-.86.306-.49.442-.53 1.194-.09 1.685l3.88 4.303c.44.491 1.19.531 1.68.088.49-.442.53-1.194.09-1.685l-3.87-4.303c-.22-.245-.52-.378-.83-.394zm-72.72 4.773c-.46-.012-.91.254-1.11.707l-5.61 12.569c-.27.603 0 1.306.6 1.575.61.27 1.31.001 1.58-.603l5.61-12.569c.27-.603 0-1.306-.61-1.575-.15-.068-.31-.101-.46-.104zm50.9.034c-.16.003-.32.036-.47.104-.6.268-.87.97-.6 1.574l5.59 12.577c.27.603.97.874 1.57.605.61-.268.88-.97.61-1.574l-5.59-12.577c-.2-.453-.65-.718-1.11-.709zm-60.75 3.852c-.38.025-.75.237-.95.594l-2.9 5.014c-.33.572-.13 1.299.44 1.63.57.33 1.3.136 1.63-.437l2.89-5.014c.33-.572.14-1.299-.43-1.629-.22-.124-.46-.174-.68-.159zm70.68 0c-.23-.017-.47.034-.68.158-.58.33-.77 1.057-.44 1.63l2.89 5.013c.34.573 1.06.767 1.63.437.58-.331.77-1.058.44-1.63l-2.89-5.014c-.21-.357-.57-.568-.95-.594zm-48.35.179c-.55-.005-1.05.38-1.17.946l-2.86 13.462c-.14.647.27 1.278.92 1.415.64.138 1.27-.272 1.41-.919l2.86-13.462c.14-.647-.27-1.278-.92-1.415-.08-.017-.16-.026-.24-.026zm25.97.009c-.08 0-.16.008-.24.025-.65.137-1.06.768-.92 1.414l2.85 13.465c.13.647.76 1.057 1.41.92s1.06-.768.92-1.414l-2.85-13.464c-.12-.566-.62-.951-1.17-.947zm-12.96 1.358c-.66 0-1.2.532-1.2 1.193v13.763c0 .661.54 1.193 1.2 1.193s1.19-.532 1.19-1.193v-13.763c0-.661-.53-1.193-1.19-1.193zm-21.91 4.447c-.46.039-.87.349-1.03.821l-1.79 5.506c-.2.628.14 1.299.77 1.503.63.205 1.3-.137 1.5-.766l1.79-5.505c.21-.629-.14-1.3-.76-1.504-.16-.051-.32-.068-.48-.055zm43.8.003c-.16-.014-.31.003-.47.054-.63.205-.97.875-.77 1.504l1.79 5.506c.2.629.88.97 1.5.766.63-.205.97-.875.77-1.503l-1.79-5.506c-.15-.472-.57-.782-1.03-.821zm-29.38 3.066c-.56.054-1.01.488-1.07 1.063l-.61 5.758c-.07.657.41 1.242 1.06 1.311.66.069 1.25-.405 1.32-1.062l.6-5.757c.07-.658-.4-1.243-1.06-1.312-.08-.008-.16-.008-.24-.001zm14.93.006c-.08-.009-.16-.009-.24.001-.66.069-1.14.653-1.07 1.31l.6 5.759c.07.657.66 1.131 1.31 1.062.66-.069 1.14-.653 1.07-1.311l-.6-5.757c-.06-.576-.52-1.01-1.07-1.064z"/><path d="m1116.53 564.859c-48.72 0-88.8 40.084-88.8 88.796s40.08 88.796 88.8 88.796c48.71 0 88.79-40.084 88.79-88.796s-40.08-88.796-88.79-88.796zm0 6.958c44.89 0 81.83 36.943 81.83 81.838s-36.94 81.838-81.83 81.838c-44.9 0-81.84-36.943-81.84-81.838s36.94-81.838 81.84-81.838z"/><path d="m1122.11 659.241-11.17-11.172-21.31 32.484zm3.46 3.455-52.58 34.491 34.5-52.572 52.57-34.492z"/></g><path d="m1105.62 791.793 14.96-9.972-14.96-9.972c-1.03-.689-2.43-.409-3.12.624-.68 1.034-.4 2.432.63 3.12l9.34 6.228-9.34 6.228c-1.03.689-1.31 2.087-.63 3.12.69 1.034 2.09 1.313 3.12.624z"/><path d="m1116.53 779.571c-69.54 0-125.92-56.374-125.92-125.916 0-1.242-1.008-2.25-2.25-2.25s-2.25 1.008-2.25 2.25c0 72.027 58.39 130.416 130.42 130.416 1.24 0 2.25-1.008 2.25-2.25 0-1.241-1.01-2.25-2.25-2.25z"/><path d="m1127.43 515.517-14.96 9.972 14.96 9.972c1.03.689 2.43.409 3.12-.624s.41-2.431-.63-3.12l-9.34-6.228 9.34-6.228c1.04-.689 1.32-2.087.63-3.12s-2.09-1.313-3.12-.624z"/><path d="m1116.53 527.739c69.54 0 125.91 56.375 125.91 125.916 0 1.242 1.01 2.25 2.25 2.25s2.25-1.008 2.25-2.25c0-72.027-58.39-130.416-130.41-130.416-1.25 0-2.25 1.008-2.25 2.25s1 2.25 2.25 2.25z"/></g></svg>